<svg width="311" height="44" viewBox="0 0 311 44" fill="none" xmlns="http://www.w3.org/2000/svg">
<path d="M119.443 6.6748V18.3268H106.179V6.6748H98.8723V37.2586H106.179V24.9617H119.443V37.2586H126.75V6.6748H126.377H119.443Z" fill="#002C5F"/>
<path d="M153.542 6.6748L145.895 18.7859L138.259 6.6748H129.635L142.252 26.6668V37.2586H149.548V26.6668L162.165 6.6748H161.496H153.542Z" fill="#002C5F"/>
<path d="M185.676 6.6748V29.0716C185.679 29.2757 185.641 29.4784 185.563 29.6674C185.486 29.8565 185.371 30.028 185.226 30.1719C185.08 30.3158 184.907 30.4289 184.717 30.5047C184.527 30.5804 184.323 30.6172 184.118 30.6128H172.412V6.6748H165.105V37.2804H186.697C187.537 37.3462 188.383 37.2296 189.174 36.9386C189.965 36.6477 190.684 36.1893 191.28 35.5951C191.877 35.0008 192.337 34.2848 192.629 33.4964C192.921 32.708 193.038 31.8659 192.972 31.0281V6.6748H185.676Z" fill="#002C5F"/>
<path d="M221.343 6.67446H199.741V37.2801H207.048V13.2984H218.776C218.979 13.2955 219.181 13.333 219.369 13.4087C219.557 13.4845 219.729 13.5969 219.873 13.7394C220.017 13.882 220.131 14.0517 220.208 14.2388C220.286 14.4258 220.325 14.6264 220.323 14.8287V37.2582H227.619V12.9267C227.659 12.0921 227.531 11.2579 227.243 10.4732C226.955 9.68855 226.512 8.96928 225.94 8.35777C225.326 7.78553 224.602 7.34176 223.813 7.05265C223.023 6.76353 222.184 6.63494 221.343 6.67446Z" fill="#002C5F"/>
<path d="M255.99 6.67449H234.388V37.2801H255.99C256.829 37.3398 257.671 37.2179 258.458 36.9226C259.246 36.6274 259.959 36.1658 260.55 35.5696C261.141 34.9735 261.596 34.2569 261.883 33.4691C262.169 32.6813 262.281 31.841 262.211 31.006V12.9268C262.254 12.0909 262.127 11.2551 261.836 10.4697C261.546 9.68438 261.099 8.96591 260.522 8.3578C259.917 7.79006 259.205 7.34862 258.427 7.05952C257.649 6.77041 256.82 6.6395 255.99 6.67449ZM254.959 14.8615V29.0712C254.962 29.2736 254.925 29.4746 254.85 29.6627C254.775 29.8508 254.663 30.0223 254.522 30.1675C254.38 30.3126 254.211 30.4286 254.024 30.5087C253.838 30.5888 253.637 30.6315 253.434 30.6343H241.684V13.2984H253.357C253.568 13.2878 253.778 13.3206 253.975 13.395C254.172 13.4693 254.351 13.5835 254.502 13.7304C254.652 13.8772 254.771 14.0535 254.849 14.2482C254.928 14.4429 254.965 14.6517 254.959 14.8615Z" fill="#002C5F"/>
<path d="M274.992 6.67469C274.154 6.63291 273.315 6.76048 272.527 7.04975C271.739 7.33902 271.018 7.78401 270.407 8.358C269.829 8.96612 269.382 9.68459 269.092 10.4699C268.801 11.2553 268.674 12.0911 268.717 12.927V37.2584H276.013V27.7926H289.277V37.2584H296.573V6.65283L274.992 6.67469ZM289.255 13.2986V21.1796H276.013V14.8617C276.01 14.6565 276.048 14.4529 276.125 14.2626C276.202 14.0724 276.317 13.8994 276.462 13.7538C276.607 13.6082 276.78 13.493 276.97 13.4148C277.161 13.3366 277.365 13.2971 277.571 13.2986H289.255Z" fill="#002C5F"/>
<path d="M311 6.6748H303.693V37.2586H311V6.6748Z" fill="#002C5F"/>
<path d="M41.7673 43.2811C64.8068 43.2811 83.5236 33.7387 83.5236 21.9774C83.5236 10.2161 64.8287 0.651855 41.7673 0.651855C18.7059 0.651855 0 10.1942 0 21.9665C0 33.7387 18.651 43.2811 41.7673 43.2811ZM49.6226 32.8315C48.9315 34.4273 47.7356 37.8158 44.9818 39.2259C44.1082 39.6321 43.159 39.8518 42.1952 39.8708H41.7783C34.7263 39.9189 27.7047 38.9468 20.933 36.9851L20.6916 36.8977C20.1431 36.7118 19.8578 36.4495 19.8578 36.1434C19.8636 36.013 19.8968 35.8853 19.9554 35.7685C20.014 35.6517 20.0966 35.5486 20.1979 35.4657L20.5819 35.1269C21.9424 33.9792 26.1004 30.9623 34.0107 27.9783C37.216 26.6864 40.5173 25.6449 43.8847 24.8631C45.9144 24.3931 53.7588 23.2016 49.6226 32.8205V32.8315ZM70.7312 11.342C70.7909 11.2022 70.8879 11.0814 71.0117 10.9928C71.1355 10.9041 71.2814 10.851 71.4333 10.8392C71.7453 10.8391 72.0491 10.9387 72.3001 11.1233C77.2042 14.1293 80.0896 17.8894 80.0896 21.9556C80.0896 29.3009 70.6105 35.6188 57.0501 38.3514C56.1834 38.5154 55.6019 38.5154 55.4045 38.2968C55.207 38.0782 55.2289 37.9251 55.4045 37.63C55.5081 37.4542 55.6294 37.2894 55.7665 37.1381C63.1501 28.4592 68.7673 15.6705 70.3691 11.9978C70.5118 11.7573 70.6325 11.5059 70.7312 11.342ZM34.0107 11.0687C34.7018 9.4619 35.8977 6.01877 38.6515 4.65245C39.5287 4.25818 40.4761 4.04263 41.4381 4.01847C41.6466 4.01847 41.8002 4.01847 41.855 4.01847C48.9081 3.9652 55.931 4.94108 62.7003 6.91508L62.9197 6.99159C63.4792 7.17741 63.7645 7.42881 63.7645 7.7458C63.7574 7.87595 63.7236 8.00327 63.6651 8.11985C63.6066 8.23643 63.5247 8.33979 63.4244 8.4235C63.302 8.53914 63.1738 8.64858 63.0404 8.75141C61.7348 9.91005 57.5548 12.9269 49.6885 15.9547C46.4835 17.2504 43.1822 18.2956 39.8144 19.0808C37.7409 19.4852 29.8745 20.6876 34.0107 11.0687ZM26.4515 5.53782C27.3292 5.37386 27.8997 5.37386 28.1082 5.53782C28.1762 5.63375 28.2127 5.7483 28.2127 5.86574C28.2127 5.98318 28.1762 6.09773 28.1082 6.19366C27.9954 6.36599 27.8707 6.53034 27.7351 6.68553C20.3515 15.3644 14.7343 28.1532 13.1325 31.8259C13.0118 32.0773 12.8911 32.3396 12.7924 32.5036C12.7311 32.6413 12.6334 32.7598 12.5097 32.8464C12.386 32.9331 12.241 32.9846 12.0902 32.9954C11.7783 32.9954 11.4745 32.8958 11.2235 32.7112C6.3194 29.7053 3.41204 25.9561 3.41204 21.879C3.41204 14.6102 12.8911 8.30326 26.4515 5.53782Z" fill="#002C5F"/>
</svg>
